# xmcd
#
# Track frame offsets:
#	150
#	37500
#	66548
#	83156
#	117169
#	136384
#	154200
#	206689
#	243919
#	283282
#
# Disc length: 4038 seconds
# Revision: 0
# Processed by: cddbd v1.5.2PL0 Copyright (c) Steve Scherf et al.
# Submitted via: dBpowerAMP V12.0
#
DISCID=8c0fc40a
DTITLE=Roy Buchanan - Live At My Father's Place, 1973
DYEAR=1973
DGENRE=Blues
TTITLE0=Rodney's Song
TTITLE1=CC Ryder
TTITLE2=Susie Q
TTITLE3=Hey Joe
TTITLE4=Linda Lou
TTITLE5=Johnny B. Goode
TTITLE6=Bad Case Of The Blues
TTITLE7=Green Onions
TTITLE8=Pete's Blues
TTITLE9=Sweet Dreams
EXTD=
EXTT0=
EXTT1=
EXTT2=
EXTT3=
EXTT4=
EXTT5=
EXTT6=
EXTT7=
EXTT8=
EXTT9=
PLAYORDER=
